<svg width="144" height="132" viewBox="0 0 144 132" fill="none" xmlns="http://www.w3.org/2000/svg">
<path d="M121.587 53.9344L105.524 65.5334C108.531 64.2704 111.508 62.9153 114.416 61.4675L119.411 58.7976L122.679 67.0687L129.784 85.0388L131.76 90.0313C93.4782 105.478 56.6004 123.623 56.6004 123.623L47.2132 108.991C43.2878 109.506 40.8602 109.732 40.4149 109.772L29.6157 85.3289L41.0265 77.0901C28.7718 78.4831 20.3558 78.7381 19.4504 78.764L11.2906 53.2469C38.6468 38.2995 56.3082 25.9625 66.3091 18.2449C76.6297 10.2808 81.1231 5.47419 81.5545 5.00275L81.5277 5.03641L105.052 22.1576C104.498 22.7938 99.2782 28.6447 86.9966 38.2405C86.3181 38.7691 85.6355 39.2997 84.9427 39.8309C91.8104 37.5204 98.4581 34.7476 104.445 31.425L121.587 53.9344Z" fill="#FE9925"/>
<path d="M71.9569 67.8116C76.7169 67.8116 80.922 68.8516 84.3387 70.2116C87.4925 71.4916 89.4782 74.3716 89.4782 77.4916V81.8116H54.4356V77.5183C54.4356 74.3716 56.4214 71.4916 59.5752 70.2383C62.9919 68.8516 67.197 67.8116 71.9569 67.8116ZM48.5952 68.4783C51.8074 68.4783 54.4356 66.0783 54.4356 63.145C54.4356 60.2116 51.8074 57.8116 48.5952 57.8116C45.3829 57.8116 42.7547 60.2116 42.7547 63.145C42.7547 66.0783 45.3829 68.4783 48.5952 68.4783ZM51.895 71.4116C50.8145 71.2516 49.7341 71.145 48.5952 71.145C45.7042 71.145 42.9592 71.705 40.477 72.6916C38.316 73.545 36.9143 75.465 36.9143 77.625V81.8116H50.0553V77.5183C50.0553 75.305 50.7269 73.225 51.895 71.4116ZM95.3187 68.4783C98.5309 68.4783 101.159 66.0783 101.159 63.145C101.159 60.2116 98.5309 57.8116 95.3187 57.8116C92.1064 57.8116 89.4782 60.2116 89.4782 63.145C89.4782 66.0783 92.1064 68.4783 95.3187 68.4783ZM107 77.625C107 75.465 105.598 73.545 103.437 72.6916C100.955 71.705 98.2097 71.145 95.3187 71.145C94.1798 71.145 93.0993 71.2516 92.0188 71.4116C93.1869 73.225 93.8586 75.305 93.8586 77.5183V81.8116H107V77.625ZM71.9569 49.8116C76.8045 49.8116 80.7176 53.385 80.7176 57.8116C80.7176 62.2383 76.8045 65.8116 71.9569 65.8116C67.1094 65.8116 63.1963 62.2383 63.1963 57.8116C63.1963 53.385 67.1094 49.8116 71.9569 49.8116Z" fill="#331B00"/>
</svg>
