<svg width="144" height="132" viewBox="0 0 144 132" fill="none" xmlns="http://www.w3.org/2000/svg">
<path d="M121.59 53.9344L105.528 65.5334C108.534 64.2704 111.511 62.9153 114.42 61.4675L119.414 58.7976L122.682 67.0687L129.787 85.0388L131.763 90.0313C93.4814 105.478 56.6037 123.623 56.6037 123.623L47.2165 108.991C43.2911 109.506 40.8635 109.732 40.4182 109.772L29.619 85.3289L41.0298 77.0901C28.7751 78.4831 20.3591 78.7381 19.4537 78.764L11.2939 53.2469C38.6501 38.2995 56.3115 25.9625 66.3124 18.2449C76.633 10.2808 81.1264 5.47419 81.5578 5.00275L81.531 5.03641L105.056 22.1576C104.501 22.7938 99.2815 28.6447 86.9999 38.2405C86.3213 38.7691 85.6388 39.2997 84.946 39.8309C91.8137 37.5204 98.4614 34.7476 104.449 31.425L121.59 53.9344Z" fill="#FE9925"/>
<path d="M54.4389 53.8118H50.0586V85.8118H85.1012V81.8118H54.4389V53.8118ZM93.8619 45.8118H58.8192V77.8118H93.8619V45.8118ZM87.2914 63.8118H65.3897V59.8118H87.2914V63.8118ZM78.5307 71.8118H65.3897V67.8118H78.5307V71.8118ZM87.2914 55.8118H65.3897V51.8118H87.2914V55.8118Z" fill="#331B00"/>
</svg>
