<svg width="145" height="132" viewBox="0 0 145 132" fill="none" xmlns="http://www.w3.org/2000/svg">
<path d="M122.226 53.9344L106.164 65.5334C109.17 64.2704 112.148 62.9153 115.056 61.4675L120.05 58.7976L123.319 67.0687L130.424 85.0388L132.399 90.0313C94.1176 105.478 57.2398 123.623 57.2398 123.623L47.8526 108.991C43.9273 109.506 41.4996 109.732 41.0543 109.772L30.2551 85.3289L41.6659 77.0901C29.4112 78.4831 20.9952 78.7381 20.0898 78.764L11.93 53.2469C39.2862 38.2995 56.9476 25.9625 66.9485 18.2449C77.2691 10.2808 81.7625 5.47419 82.1939 5.00275L82.1671 5.03641L105.692 22.1576C105.138 22.7938 99.9176 28.6447 87.636 38.2405C86.9575 38.7691 86.2749 39.2997 85.5821 39.8309C92.4498 37.5204 99.0975 34.7476 105.085 31.425L122.226 53.9344Z" fill="#FE9925"/>
<path d="M98.8783 54.9024V83.266H53.4821V78.9024H94.0997V54.9024H98.8783ZM89.3212 74.5388H46.3143V48.3569H89.3212V74.5388ZM74.9856 61.4478C74.9856 57.826 71.7839 54.9024 67.8178 54.9024C63.8516 54.9024 60.6499 57.826 60.6499 61.4478C60.6499 65.0697 63.8516 67.9933 67.8178 67.9933C71.7839 67.9933 74.9856 65.0697 74.9856 61.4478Z" fill="#331B00"/>
</svg>
